<svg width="61" height="54" viewBox="0 0 61 54" fill="none" xmlns="http://www.w3.org/2000/svg">
<rect x="8.3913" width="36.2174" height="31.5588" rx="5" fill="#565050"/>
<circle cx="35.5" cy="3.5" r="2.5" fill="#EBECED"/>
<circle cx="35.5" cy="9.5" r="2.5" fill="#EBECED"/>
<circle cx="35.5" cy="15.5" r="2.5" fill="#EBECED"/>
<circle cx="35.5" cy="21.5" r="2.5" fill="#EBECED"/>
<circle cx="35.5" cy="27.5" r="2.5" fill="#EBECED"/>
<circle cx="8" cy="15.1963" r="4" fill="#EBECED"/>
<circle cx="45" cy="15.1963" r="4" fill="#EBECED"/>
<rect x="16" y="14.1963" width="15" height="3" rx="1.5" fill="#D9D9D9"/>
<rect x="16" y="21.1963" width="15" height="3" rx="1.5" fill="#D9D9D9"/>
<path d="M16 8.69629C16 7.86786 16.6716 7.19629 17.5 7.19629H29.5C30.3284 7.19629 31 7.86786 31 8.69629C31 9.52472 30.3284 10.1963 29.5 10.1963H17.5C16.6716 10.1963 16 9.52472 16 8.69629Z" fill="#D9D9D9"/>
<path d="M5.07031 44.873H2.06738L2.05273 44.1113H4.63818C5.16553 44.1113 5.61475 44.0356 5.98584 43.8843C6.35693 43.7329 6.6377 43.5083 6.82812 43.2104C7.02344 42.9077 7.12109 42.5366 7.12109 42.0972C7.12109 41.6479 7.02588 41.2769 6.83545 40.9839C6.64502 40.686 6.35938 40.4663 5.97852 40.3247C5.59766 40.1831 5.11914 40.1123 4.54297 40.1123H2.30176V50H1.40088V39.3359H4.54297C5.08496 39.3359 5.5708 39.3896 6.00049 39.4971C6.43018 39.6045 6.79639 39.7729 7.09912 40.0024C7.40186 40.2319 7.63135 40.5225 7.7876 40.874C7.94873 41.2207 8.0293 41.6357 8.0293 42.1191C8.0293 42.5586 7.93164 42.9565 7.73633 43.313C7.54102 43.6646 7.26514 43.9526 6.90869 44.1772C6.55713 44.397 6.13477 44.5337 5.6416 44.5874L5.07031 44.873ZM5.00439 50H1.78174L2.24316 49.231H5.00439C5.53174 49.231 5.98096 49.1431 6.35205 48.9673C6.72803 48.7866 7.01611 48.5303 7.21631 48.1982C7.4165 47.8662 7.5166 47.4707 7.5166 47.0117C7.5166 46.6064 7.42871 46.2427 7.25293 45.9204C7.07715 45.5981 6.80859 45.3442 6.44727 45.1587C6.08594 44.9683 5.62695 44.873 5.07031 44.873H3.20264L3.21729 44.1113H5.86133L6.02246 44.3823C6.50098 44.4312 6.91846 44.5801 7.2749 44.8291C7.63623 45.0732 7.91455 45.3833 8.10986 45.7593C8.31006 46.1353 8.41016 46.5479 8.41016 46.9971C8.41016 47.6416 8.26611 48.1885 7.97803 48.6377C7.69482 49.082 7.29688 49.4214 6.78418 49.6558C6.27637 49.8853 5.68311 50 5.00439 50ZM9.91162 46.1621V45.9204C9.91162 45.3442 9.99463 44.812 10.1606 44.3237C10.3267 43.8354 10.5635 43.4131 10.8711 43.0566C11.1836 42.7002 11.5571 42.4243 11.9917 42.229C12.4263 42.0288 12.9097 41.9287 13.4419 41.9287C13.979 41.9287 14.4648 42.0288 14.8994 42.229C15.334 42.4243 15.7075 42.7002 16.02 43.0566C16.3325 43.4131 16.5718 43.8354 16.7378 44.3237C16.9038 44.812 16.9868 45.3442 16.9868 45.9204V46.1621C16.9868 46.7383 16.9038 47.2705 16.7378 47.7588C16.5718 48.2422 16.3325 48.6621 16.02 49.0186C15.7124 49.375 15.3413 49.6533 14.9067 49.8535C14.4722 50.0488 13.9888 50.1465 13.4565 50.1465C12.9194 50.1465 12.4336 50.0488 11.999 49.8535C11.5645 49.6533 11.1909 49.375 10.8784 49.0186C10.5659 48.6621 10.3267 48.2422 10.1606 47.7588C9.99463 47.2705 9.91162 46.7383 9.91162 46.1621ZM10.7832 45.9204V46.1621C10.7832 46.5967 10.8418 47.0093 10.959 47.3999C11.0762 47.7856 11.2471 48.1299 11.4717 48.4326C11.6963 48.7305 11.9746 48.9648 12.3066 49.1357C12.6387 49.3066 13.022 49.3921 13.4565 49.3921C13.8862 49.3921 14.2646 49.3066 14.5918 49.1357C14.9238 48.9648 15.2021 48.7305 15.4268 48.4326C15.6514 48.1299 15.8198 47.7856 15.9321 47.3999C16.0493 47.0093 16.1079 46.5967 16.1079 46.1621V45.9204C16.1079 45.4907 16.0493 45.083 15.9321 44.6973C15.8198 44.3115 15.6489 43.9673 15.4194 43.6646C15.1948 43.3618 14.9165 43.1226 14.5845 42.9468C14.2524 42.771 13.8716 42.6831 13.4419 42.6831C13.0122 42.6831 12.6313 42.771 12.2993 42.9468C11.9722 43.1226 11.6938 43.3618 11.4644 43.6646C11.2397 43.9673 11.0688 44.3115 10.9517 44.6973C10.8394 45.083 10.7832 45.4907 10.7832 45.9204ZM18.3198 46.1621V45.9204C18.3198 45.3442 18.4028 44.812 18.5688 44.3237C18.7349 43.8354 18.9717 43.4131 19.2793 43.0566C19.5918 42.7002 19.9653 42.4243 20.3999 42.229C20.8345 42.0288 21.3179 41.9287 21.8501 41.9287C22.3872 41.9287 22.873 42.0288 23.3076 42.229C23.7422 42.4243 24.1157 42.7002 24.4282 43.0566C24.7407 43.4131 24.98 43.8354 25.146 44.3237C25.312 44.812 25.395 45.3442 25.395 45.9204V46.1621C25.395 46.7383 25.312 47.2705 25.146 47.7588C24.98 48.2422 24.7407 48.6621 24.4282 49.0186C24.1206 49.375 23.7495 49.6533 23.3149 49.8535C22.8804 50.0488 22.397 50.1465 21.8647 50.1465C21.3276 50.1465 20.8418 50.0488 20.4072 49.8535C19.9727 49.6533 19.5991 49.375 19.2866 49.0186C18.9741 48.6621 18.7349 48.2422 18.5688 47.7588C18.4028 47.2705 18.3198 46.7383 18.3198 46.1621ZM19.1914 45.9204V46.1621C19.1914 46.5967 19.25 47.0093 19.3672 47.3999C19.4844 47.7856 19.6553 48.1299 19.8799 48.4326C20.1045 48.7305 20.3828 48.9648 20.7148 49.1357C21.0469 49.3066 21.4302 49.3921 21.8647 49.3921C22.2944 49.3921 22.6729 49.3066 23 49.1357C23.332 48.9648 23.6104 48.7305 23.835 48.4326C24.0596 48.1299 24.228 47.7856 24.3403 47.3999C24.4575 47.0093 24.5161 46.5967 24.5161 46.1621V45.9204C24.5161 45.4907 24.4575 45.083 24.3403 44.6973C24.228 44.3115 24.0571 43.9673 23.8276 43.6646C23.603 43.3618 23.3247 43.1226 22.9927 42.9468C22.6606 42.771 22.2798 42.6831 21.8501 42.6831C21.4204 42.6831 21.0396 42.771 20.7075 42.9468C20.3804 43.1226 20.1021 43.3618 19.8726 43.6646C19.6479 43.9673 19.4771 44.3115 19.3599 44.6973C19.2476 45.083 19.1914 45.4907 19.1914 45.9204ZM28.083 38.75V50H27.2114V38.75H28.083ZM33.0562 42.0752L29.3501 45.752L27.7754 47.2754L27.6436 46.4185L28.9106 45.0488L31.9502 42.0752H33.0562ZM32.2944 50L28.9839 45.8838L29.4673 45.1294L33.3491 50H32.2944ZM35.5391 42.0752V50H34.6675V42.0752H35.5391ZM34.5137 39.7827C34.5137 39.6167 34.5649 39.4775 34.6675 39.3652C34.7749 39.248 34.9214 39.1895 35.1069 39.1895C35.2925 39.1895 35.439 39.248 35.5464 39.3652C35.6587 39.4775 35.7148 39.6167 35.7148 39.7827C35.7148 39.9438 35.6587 40.083 35.5464 40.2002C35.439 40.3125 35.2925 40.3687 35.1069 40.3687C34.9214 40.3687 34.7749 40.3125 34.6675 40.2002C34.5649 40.083 34.5137 39.9438 34.5137 39.7827ZM38.8057 43.7671V50H37.9341V42.0752H38.769L38.8057 43.7671ZM38.6079 45.5469L38.2197 45.3271C38.249 44.8584 38.3442 44.4189 38.5054 44.0088C38.6665 43.5986 38.8838 43.2373 39.1572 42.9248C39.4355 42.6123 39.7603 42.3682 40.1313 42.1924C40.5073 42.0166 40.9224 41.9287 41.3765 41.9287C41.772 41.9287 42.126 41.9824 42.4385 42.0898C42.751 42.1973 43.0171 42.3682 43.2368 42.6025C43.4565 42.8369 43.6226 43.1372 43.7349 43.5034C43.8521 43.8696 43.9106 44.3164 43.9106 44.8438V50H43.0317V44.8364C43.0317 44.2896 42.9561 43.8623 42.8047 43.5547C42.6533 43.2422 42.4385 43.02 42.1602 42.8882C41.8818 42.7563 41.5522 42.6904 41.1714 42.6904C40.7515 42.6904 40.3828 42.7832 40.0654 42.9688C39.7529 43.1494 39.4893 43.3862 39.2744 43.6792C39.0645 43.9673 38.9033 44.2773 38.791 44.6094C38.6787 44.9365 38.6177 45.249 38.6079 45.5469ZM51.396 42.0752H52.209V49.8608C52.209 50.5493 52.0771 51.1401 51.8135 51.6333C51.5547 52.1265 51.186 52.5049 50.7075 52.7686C50.2339 53.0322 49.6748 53.1641 49.0303 53.1641C48.7031 53.1641 48.3662 53.1128 48.0195 53.0103C47.6777 52.9126 47.353 52.7612 47.0454 52.5562C46.7427 52.356 46.4839 52.1069 46.269 51.8091L46.7598 51.2744C47.082 51.665 47.4263 51.9507 47.7925 52.1313C48.1587 52.3169 48.5542 52.4097 48.979 52.4097C49.4819 52.4097 49.9067 52.3096 50.2534 52.1094C50.605 51.9092 50.8711 51.6211 51.0518 51.2451C51.2373 50.8691 51.3301 50.4175 51.3301 49.8901V43.8184L51.396 42.0752ZM45.8296 46.1182V45.9644C45.8296 45.3491 45.8979 44.7949 46.0347 44.3018C46.1763 43.8037 46.3789 43.3789 46.6426 43.0273C46.9062 42.6709 47.2261 42.3999 47.6021 42.2144C47.9829 42.0239 48.4126 41.9287 48.8911 41.9287C49.3501 41.9287 49.7578 42.0044 50.1143 42.1558C50.4707 42.3071 50.7783 42.5244 51.0371 42.8076C51.2959 43.0908 51.5034 43.4277 51.6597 43.8184C51.8208 44.209 51.938 44.6436 52.0112 45.1221V47.0776C51.9526 47.5269 51.8452 47.9395 51.689 48.3154C51.5327 48.6865 51.3252 49.0112 51.0664 49.2896C50.8076 49.563 50.4951 49.7754 50.1289 49.9268C49.7676 50.0732 49.3501 50.1465 48.8765 50.1465C48.4028 50.1465 47.978 50.0488 47.6021 49.8535C47.2261 49.6582 46.9062 49.3823 46.6426 49.0259C46.3789 48.6646 46.1763 48.2373 46.0347 47.7441C45.8979 47.251 45.8296 46.709 45.8296 46.1182ZM46.7085 45.9644V46.1182C46.7085 46.582 46.7549 47.0117 46.8477 47.4072C46.9404 47.8027 47.082 48.147 47.2725 48.4399C47.4629 48.7329 47.7046 48.9624 47.9976 49.1284C48.2905 49.2944 48.6348 49.3774 49.0303 49.3774C49.5332 49.3774 49.9556 49.2822 50.2974 49.0918C50.6392 48.8965 50.9102 48.6401 51.1104 48.3228C51.3105 48.0005 51.457 47.6489 51.5498 47.2681V44.9902C51.4961 44.7314 51.4131 44.4678 51.3008 44.1992C51.1934 43.9307 51.042 43.6841 50.8467 43.4595C50.6562 43.23 50.4121 43.0469 50.1143 42.9102C49.8213 42.7686 49.4648 42.6978 49.0449 42.6978C48.6445 42.6978 48.2954 42.7808 47.9976 42.9468C47.7046 43.1128 47.4629 43.3447 47.2725 43.6426C47.082 43.9355 46.9404 44.2798 46.8477 44.6753C46.7549 45.0708 46.7085 45.5005 46.7085 45.9644ZM59.2476 47.9785C59.2476 47.7637 59.1938 47.5513 59.0864 47.3413C58.979 47.1313 58.7715 46.9385 58.4639 46.7627C58.1611 46.5869 57.7144 46.438 57.1235 46.3159C56.6841 46.2183 56.291 46.1084 55.9443 45.9863C55.6025 45.8643 55.3145 45.7178 55.0801 45.5469C54.8457 45.376 54.6675 45.1709 54.5454 44.9316C54.4233 44.6924 54.3623 44.4092 54.3623 44.082C54.3623 43.7891 54.4258 43.5132 54.5527 43.2544C54.6846 42.9907 54.8701 42.7612 55.1094 42.5659C55.3535 42.3657 55.6465 42.2095 55.9883 42.0972C56.335 41.9849 56.7231 41.9287 57.1528 41.9287C57.7632 41.9287 58.2856 42.0337 58.7202 42.2437C59.1597 42.4487 59.4941 42.7295 59.7236 43.0859C59.958 43.4424 60.0752 43.8452 60.0752 44.2944H59.2036C59.2036 44.021 59.123 43.7622 58.9619 43.5181C58.8057 43.2739 58.5737 43.0737 58.2661 42.9175C57.9634 42.7612 57.5923 42.6831 57.1528 42.6831C56.6987 42.6831 56.3301 42.7515 56.0469 42.8882C55.7637 43.0249 55.5562 43.1982 55.4243 43.4082C55.2974 43.6182 55.2339 43.8354 55.2339 44.0601C55.2339 44.2358 55.2607 44.397 55.3145 44.5435C55.373 44.6851 55.4756 44.8169 55.6221 44.939C55.7734 45.061 55.9883 45.1758 56.2666 45.2832C56.5449 45.3906 56.9062 45.4956 57.3506 45.5981C57.9902 45.7397 58.5127 45.9131 58.918 46.1182C59.3281 46.3184 59.6309 46.5674 59.8262 46.8652C60.0215 47.1582 60.1191 47.5146 60.1191 47.9346C60.1191 48.2617 60.0508 48.562 59.9141 48.8354C59.7773 49.104 59.5796 49.3359 59.3208 49.5312C59.0669 49.7266 58.7593 49.8779 58.3979 49.9854C58.0415 50.0928 57.6411 50.1465 57.1968 50.1465C56.5278 50.1465 55.9614 50.0366 55.4976 49.8169C55.0386 49.5923 54.6895 49.2993 54.4502 48.938C54.2158 48.5718 54.0986 48.1836 54.0986 47.7734H54.9702C54.9995 48.1836 55.1289 48.5083 55.3584 48.7476C55.5879 48.9819 55.8687 49.1479 56.2007 49.2456C56.5376 49.3433 56.8696 49.3921 57.1968 49.3921C57.646 49.3921 58.022 49.3262 58.3247 49.1943C58.6274 49.0625 58.8569 48.8892 59.0132 48.6743C59.1694 48.4595 59.2476 48.2275 59.2476 47.9785Z" fill="#565050"/>
</svg>
