<svg width="46" height="41" viewBox="0 0 46 41" fill="none" xmlns="http://www.w3.org/2000/svg">
<rect width="46" height="41" rx="10" fill="#444473"/>
<path d="M34.5 26.8334C34.5 24.6242 32.7091 22.8334 30.5 22.8334C28.2909 22.8334 26.5 24.6242 26.5 26.8334C26.5 29.0425 28.2909 30.8334 30.5 30.8334C32.7091 30.8334 34.5 29.0425 34.5 26.8334ZM38 26.0834L30.5 26.0834L30.5 27.5834L38 27.5834L38 26.0834Z" fill="#FFFDFD"/>
<line x1="23.8333" y1="26.75" x2="8" y2="26.75" stroke="white" stroke-width="1.5"/>
<path d="M11.5 16C11.5 18.2091 13.2909 20 15.5 20C17.7091 20 19.5 18.2091 19.5 16C19.5 13.7909 17.7091 12 15.5 12C13.2909 12 11.5 13.7909 11.5 16ZM8 16.75H15.5V15.25H8V16.75Z" fill="#FFFDFD"/>
<line x1="22.1667" y1="16.0834" x2="38" y2="16.0834" stroke="white" stroke-width="1.5"/>
</svg>
