<svg width="50" height="55" viewBox="0 0 50 55" fill="none" xmlns="http://www.w3.org/2000/svg">
<path d="M10.022 45.4946V46.2637H3.54004V45.4946H10.022ZM3.75244 40.7119V51.376H2.85156V40.7119H3.75244ZM10.7471 40.7119V51.376H9.84619V40.7119H10.7471ZM14.2407 43.4512V51.376H13.3691V43.4512H14.2407ZM13.2153 41.1587C13.2153 40.9927 13.2666 40.8535 13.3691 40.7412C13.4766 40.624 13.623 40.5654 13.8086 40.5654C13.9941 40.5654 14.1406 40.624 14.248 40.7412C14.3604 40.8535 14.4165 40.9927 14.4165 41.1587C14.4165 41.3198 14.3604 41.459 14.248 41.5762C14.1406 41.6885 13.9941 41.7446 13.8086 41.7446C13.623 41.7446 13.4766 41.6885 13.3691 41.5762C13.2666 41.459 13.2153 41.3198 13.2153 41.1587ZM21.3818 49.3545C21.3818 49.1396 21.3281 48.9272 21.2207 48.7173C21.1133 48.5073 20.9058 48.3145 20.5981 48.1387C20.2954 47.9629 19.8486 47.814 19.2578 47.6919C18.8184 47.5942 18.4253 47.4844 18.0786 47.3623C17.7368 47.2402 17.4487 47.0938 17.2144 46.9229C16.98 46.752 16.8018 46.5469 16.6797 46.3076C16.5576 46.0684 16.4966 45.7852 16.4966 45.458C16.4966 45.165 16.5601 44.8892 16.687 44.6304C16.8188 44.3667 17.0044 44.1372 17.2437 43.9419C17.4878 43.7417 17.7808 43.5854 18.1226 43.4731C18.4692 43.3608 18.8574 43.3047 19.2871 43.3047C19.8975 43.3047 20.4199 43.4097 20.8545 43.6196C21.2939 43.8247 21.6284 44.1055 21.8579 44.4619C22.0923 44.8184 22.2095 45.2212 22.2095 45.6704H21.3379C21.3379 45.397 21.2573 45.1382 21.0962 44.894C20.9399 44.6499 20.708 44.4497 20.4004 44.2935C20.0977 44.1372 19.7266 44.0591 19.2871 44.0591C18.833 44.0591 18.4644 44.1274 18.1812 44.2642C17.8979 44.4009 17.6904 44.5742 17.5586 44.7842C17.4316 44.9941 17.3682 45.2114 17.3682 45.436C17.3682 45.6118 17.395 45.7729 17.4487 45.9194C17.5073 46.061 17.6099 46.1929 17.7563 46.3149C17.9077 46.437 18.1226 46.5518 18.4009 46.6592C18.6792 46.7666 19.0405 46.8716 19.4849 46.9741C20.1245 47.1157 20.647 47.2891 21.0522 47.4941C21.4624 47.6943 21.7651 47.9434 21.9604 48.2412C22.1558 48.5342 22.2534 48.8906 22.2534 49.3105C22.2534 49.6377 22.1851 49.938 22.0483 50.2114C21.9116 50.48 21.7139 50.7119 21.4551 50.9072C21.2012 51.1025 20.8936 51.2539 20.5322 51.3613C20.1758 51.4688 19.7754 51.5225 19.3311 51.5225C18.6621 51.5225 18.0957 51.4126 17.6318 51.1929C17.1729 50.9683 16.8237 50.6753 16.5845 50.314C16.3501 49.9478 16.2329 49.5596 16.2329 49.1494H17.1045C17.1338 49.5596 17.2632 49.8843 17.4927 50.1235C17.7222 50.3579 18.0029 50.5239 18.335 50.6216C18.6719 50.7192 19.0039 50.7681 19.3311 50.7681C19.7803 50.7681 20.1562 50.7021 20.459 50.5703C20.7617 50.4385 20.9912 50.2651 21.1475 50.0503C21.3037 49.8354 21.3818 49.6035 21.3818 49.3545ZM27.2339 43.4512V44.1689H23.2642V43.4512H27.2339ZM24.7217 41.415H25.5933V49.4497C25.5933 49.8159 25.6421 50.0918 25.7397 50.2773C25.8374 50.4629 25.9644 50.5874 26.1206 50.6509C26.2769 50.7144 26.4453 50.7461 26.626 50.7461C26.7578 50.7461 26.8848 50.7388 27.0068 50.7241C27.1289 50.7046 27.2388 50.6851 27.3364 50.6655L27.373 51.4053C27.2656 51.4395 27.1265 51.4663 26.9556 51.4858C26.7847 51.5103 26.6138 51.5225 26.4429 51.5225C26.106 51.5225 25.8081 51.4614 25.5493 51.3394C25.2905 51.2124 25.0879 50.9976 24.9414 50.6948C24.7949 50.3872 24.7217 49.9697 24.7217 49.4424V41.415ZM28.4424 47.5381V47.2964C28.4424 46.7202 28.5254 46.188 28.6914 45.6997C28.8574 45.2114 29.0942 44.7891 29.4019 44.4326C29.7144 44.0762 30.0879 43.8003 30.5225 43.605C30.957 43.4048 31.4404 43.3047 31.9727 43.3047C32.5098 43.3047 32.9956 43.4048 33.4302 43.605C33.8647 43.8003 34.2383 44.0762 34.5508 44.4326C34.8633 44.7891 35.1025 45.2114 35.2686 45.6997C35.4346 46.188 35.5176 46.7202 35.5176 47.2964V47.5381C35.5176 48.1143 35.4346 48.6465 35.2686 49.1348C35.1025 49.6182 34.8633 50.0381 34.5508 50.3945C34.2432 50.751 33.8721 51.0293 33.4375 51.2295C33.0029 51.4248 32.5195 51.5225 31.9873 51.5225C31.4502 51.5225 30.9644 51.4248 30.5298 51.2295C30.0952 51.0293 29.7217 50.751 29.4092 50.3945C29.0967 50.0381 28.8574 49.6182 28.6914 49.1348C28.5254 48.6465 28.4424 48.1143 28.4424 47.5381ZM29.314 47.2964V47.5381C29.314 47.9727 29.3726 48.3853 29.4897 48.7759C29.6069 49.1616 29.7778 49.5059 30.0024 49.8086C30.2271 50.1064 30.5054 50.3408 30.8374 50.5117C31.1694 50.6826 31.5527 50.7681 31.9873 50.7681C32.417 50.7681 32.7954 50.6826 33.1226 50.5117C33.4546 50.3408 33.7329 50.1064 33.9575 49.8086C34.1821 49.5059 34.3506 49.1616 34.4629 48.7759C34.5801 48.3853 34.6387 47.9727 34.6387 47.5381V47.2964C34.6387 46.8667 34.5801 46.459 34.4629 46.0732C34.3506 45.6875 34.1797 45.3433 33.9502 45.0405C33.7256 44.7378 33.4473 44.4985 33.1152 44.3228C32.7832 44.147 32.4023 44.0591 31.9727 44.0591C31.543 44.0591 31.1621 44.147 30.8301 44.3228C30.5029 44.4985 30.2246 44.7378 29.9951 45.0405C29.7705 45.3433 29.5996 45.6875 29.4824 46.0732C29.3701 46.459 29.314 46.8667 29.314 47.2964ZM38.2056 44.7622V51.376H37.334V43.4512H38.1836L38.2056 44.7622ZM41.0107 43.3926L40.9888 44.1982C40.8911 44.1836 40.7959 44.1714 40.7031 44.1616C40.6104 44.1519 40.5103 44.147 40.4028 44.147C40.022 44.147 39.6875 44.2178 39.3994 44.3594C39.1162 44.4961 38.877 44.689 38.6816 44.938C38.4863 45.1821 38.3374 45.4702 38.2349 45.8022C38.1323 46.1294 38.0737 46.481 38.0591 46.8569L37.7368 46.9814C37.7368 46.4639 37.7905 45.9829 37.8979 45.5386C38.0054 45.0942 38.1689 44.7061 38.3887 44.374C38.6133 44.0371 38.894 43.7759 39.231 43.5903C39.5728 43.3999 39.9731 43.3047 40.4321 43.3047C40.5444 43.3047 40.6543 43.3145 40.7617 43.334C40.874 43.3486 40.957 43.3682 41.0107 43.3926ZM44.8706 50.585L47.3389 43.4512H48.2837L44.9292 52.6504C44.8608 52.8311 44.7729 53.0312 44.6655 53.251C44.563 53.4707 44.4263 53.6807 44.2554 53.8809C44.0894 54.0859 43.8794 54.252 43.6255 54.3789C43.3765 54.5107 43.0713 54.5767 42.71 54.5767C42.6172 54.5767 42.4976 54.5645 42.3511 54.54C42.2095 54.5205 42.1069 54.501 42.0435 54.4814L42.0361 53.7417C42.0898 53.7563 42.168 53.7686 42.2705 53.7783C42.373 53.7881 42.4438 53.793 42.4829 53.793C42.8003 53.793 43.0664 53.7393 43.2812 53.6318C43.501 53.5244 43.6841 53.3633 43.8306 53.1484C43.9771 52.9385 44.1064 52.6748 44.2188 52.3574L44.8706 50.585ZM42.5635 43.4512L45.0903 50.2554L45.3247 51.1709L44.6875 51.5298L41.6113 43.4512H42.5635Z" fill="#565050"/>
<path d="M41.5 17C41.5 25.4808 34.1946 32.5 25 32.5C15.8054 32.5 8.5 25.4808 8.5 17C8.5 8.51921 15.8054 1.5 25 1.5C34.1946 1.5 41.5 8.51921 41.5 17Z" fill="#D9D9D9" stroke="#565050" stroke-width="3"/>
<rect x="22.137" y="8.77417" width="4.64516" height="10.9677" rx="2.32258" fill="#565050"/>
<path d="M32.5016 19.9297C33.5702 20.5409 33.8977 21.8764 33.2333 22.9127C32.5688 23.9489 31.1639 24.2935 30.0954 23.6823L24.0316 20.2141C22.963 19.603 22.6355 18.2675 23.2999 17.2312C23.9644 16.195 25.3693 15.8504 26.4378 16.4615L32.5016 19.9297Z" fill="#565050"/>
</svg>
