<svg width="30" height="30" viewBox="0 0 30 30" fill="none" xmlns="http://www.w3.org/2000/svg">
<path d="M12.7831 6.10365C12.7831 5.30861 13.4276 4.66411 14.2226 4.66411H14.6833C15.4783 4.66411 16.1228 5.30861 16.1228 6.10365V14.455L23.7859 17.7244C24.5171 18.0364 24.857 18.8821 24.545 19.6134L24.3642 20.0371C24.0522 20.7684 23.2065 21.1082 22.4753 20.7962L12.7831 16.6611L12.7916 16.6411H12.7831V6.10365Z" fill="#444473"/>
<path fill-rule="evenodd" clip-rule="evenodd" d="M15 30C23.2843 30 30 23.2843 30 15C30 6.71573 23.2843 0 15 0C6.71573 0 0 6.71573 0 15C0 23.2843 6.71573 30 15 30ZM15 27.1209C21.6942 27.1209 27.1209 21.6942 27.1209 15C27.1209 8.30581 21.6942 2.87908 15 2.87908C8.3058 2.87908 2.87908 8.30581 2.87908 15C2.87908 21.6942 8.3058 27.1209 15 27.1209Z" fill="#444473"/>
</svg>
