<svg width="50" height="53" viewBox="0 0 50 53" fill="none" xmlns="http://www.w3.org/2000/svg">
<rect x="8.33333" y="15.6863" width="31.25" height="19.6078" rx="2" fill="#444473"/>
<path d="M22.6031 1.2487C23.3688 0.543153 24.5478 0.543152 25.3136 1.2487L40.9399 15.6468C42.2795 16.8811 41.4062 19.1176 39.5847 19.1176H8.33196C6.51045 19.1176 5.63716 16.8811 6.97673 15.6468L22.6031 1.2487Z" fill="#444473"/>
<path d="M17.7083 29.5098C17.7083 26.7483 19.9469 24.5098 22.7083 24.5098H25.2083C27.9698 24.5098 30.2083 26.7483 30.2083 29.5098V34.2156C30.2083 36.9771 27.9698 39.2156 25.2083 39.2156H22.7083C19.9469 39.2156 17.7083 36.9771 17.7083 34.2156V29.5098Z" fill="#EBECED"/>
<path d="M13.479 46.354V47.123H6.99707V46.354H13.479ZM7.20947 41.5713V52.2354H6.30859V41.5713H7.20947ZM14.2041 41.5713V52.2354H13.3032V41.5713H14.2041ZM16.2402 48.3975V48.1558C16.2402 47.5796 16.3232 47.0474 16.4893 46.5591C16.6553 46.0708 16.8921 45.6484 17.1997 45.292C17.5122 44.9355 17.8857 44.6597 18.3203 44.4644C18.7549 44.2642 19.2383 44.1641 19.7705 44.1641C20.3076 44.1641 20.7935 44.2642 21.228 44.4644C21.6626 44.6597 22.0361 44.9355 22.3486 45.292C22.6611 45.6484 22.9004 46.0708 23.0664 46.5591C23.2324 47.0474 23.3154 47.5796 23.3154 48.1558V48.3975C23.3154 48.9736 23.2324 49.5059 23.0664 49.9941C22.9004 50.4775 22.6611 50.8975 22.3486 51.2539C22.041 51.6104 21.6699 51.8887 21.2354 52.0889C20.8008 52.2842 20.3174 52.3818 19.7852 52.3818C19.248 52.3818 18.7622 52.2842 18.3276 52.0889C17.8931 51.8887 17.5195 51.6104 17.207 51.2539C16.8945 50.8975 16.6553 50.4775 16.4893 49.9941C16.3232 49.5059 16.2402 48.9736 16.2402 48.3975ZM17.1118 48.1558V48.3975C17.1118 48.832 17.1704 49.2446 17.2876 49.6353C17.4048 50.021 17.5757 50.3652 17.8003 50.668C18.0249 50.9658 18.3032 51.2002 18.6353 51.3711C18.9673 51.542 19.3506 51.6274 19.7852 51.6274C20.2148 51.6274 20.5933 51.542 20.9204 51.3711C21.2524 51.2002 21.5308 50.9658 21.7554 50.668C21.98 50.3652 22.1484 50.021 22.2607 49.6353C22.3779 49.2446 22.4365 48.832 22.4365 48.3975V48.1558C22.4365 47.7261 22.3779 47.3184 22.2607 46.9326C22.1484 46.5469 21.9775 46.2026 21.748 45.8999C21.5234 45.5972 21.2451 45.3579 20.9131 45.1821C20.5811 45.0063 20.2002 44.9185 19.7705 44.9185C19.3408 44.9185 18.96 45.0063 18.6279 45.1821C18.3008 45.3579 18.0225 45.5972 17.793 45.8999C17.5684 46.2026 17.3975 46.5469 17.2803 46.9326C17.168 47.3184 17.1118 47.7261 17.1118 48.1558ZM25.9595 45.9512V52.2354H25.0806V44.3105H25.9229L25.9595 45.9512ZM25.7983 47.7822L25.3735 47.5625C25.4028 47.0938 25.4907 46.6543 25.6372 46.2441C25.7886 45.834 25.9985 45.4727 26.2671 45.1602C26.5356 44.8477 26.8579 44.6035 27.2339 44.4277C27.6099 44.252 28.0371 44.1641 28.5156 44.1641C28.9014 44.1641 29.2505 44.2178 29.563 44.3252C29.8804 44.4277 30.1489 44.5913 30.3687 44.8159C30.5933 45.0356 30.7666 45.3237 30.8887 45.6802C31.0107 46.0366 31.0718 46.4639 31.0718 46.9619V52.2354H30.2002V46.9912C30.2002 46.4639 30.1172 46.0513 29.9512 45.7534C29.79 45.4556 29.563 45.2432 29.27 45.1162C28.9819 44.9893 28.6475 44.9258 28.2666 44.9258C27.8174 44.9258 27.4365 45.0186 27.124 45.2041C26.8164 45.3848 26.5649 45.6216 26.3696 45.9146C26.1792 46.2026 26.0376 46.5127 25.9448 46.8447C25.8521 47.1719 25.8032 47.4844 25.7983 47.7822ZM31.0645 47.0938L30.4785 47.1084C30.5029 46.7227 30.5908 46.354 30.7422 46.0024C30.8984 45.6509 31.1108 45.3384 31.3794 45.0649C31.6479 44.7866 31.9678 44.5669 32.3389 44.4058C32.7148 44.2446 33.1372 44.1641 33.606 44.1641C34.0161 44.1641 34.3823 44.2202 34.7046 44.3325C35.0269 44.4399 35.2979 44.6133 35.5176 44.8525C35.7422 45.0869 35.9131 45.3872 36.0303 45.7534C36.1475 46.1196 36.2061 46.5591 36.2061 47.0718V52.2354H35.3271V47.0645C35.3271 46.5029 35.2441 46.0684 35.0781 45.7607C34.917 45.4482 34.6924 45.231 34.4043 45.1089C34.1162 44.9868 33.7793 44.9258 33.3936 44.9258C33.0127 44.9307 32.6782 45.0015 32.3901 45.1382C32.1021 45.27 31.8604 45.4458 31.665 45.6655C31.4746 45.8804 31.3281 46.1123 31.2256 46.3613C31.1279 46.6104 31.0742 46.8545 31.0645 47.0938ZM41.4941 52.3818C40.9766 52.3818 40.5005 52.2866 40.0659 52.0962C39.6362 51.9058 39.2603 51.6372 38.938 51.2905C38.6206 50.9438 38.374 50.5337 38.1982 50.0601C38.0273 49.5815 37.9419 49.0591 37.9419 48.4927V48.1777C37.9419 47.5674 38.0322 47.0156 38.2129 46.5225C38.3936 46.0293 38.6426 45.6069 38.96 45.2554C39.2773 44.9038 39.6387 44.6353 40.0439 44.4497C40.4541 44.2593 40.8838 44.1641 41.333 44.1641C41.8359 44.1641 42.2827 44.2544 42.6733 44.4351C43.064 44.6108 43.3911 44.8623 43.6548 45.1895C43.9233 45.5117 44.126 45.895 44.2627 46.3394C44.3994 46.7788 44.4678 47.2646 44.4678 47.7969V48.3315H38.4692V47.5845H43.5962V47.4819C43.5864 47.0376 43.4961 46.6226 43.3252 46.2368C43.1592 45.8462 42.9102 45.5288 42.5781 45.2847C42.2461 45.0405 41.8311 44.9185 41.333 44.9185C40.9619 44.9185 40.6201 44.9966 40.3076 45.1528C40 45.3091 39.7339 45.5337 39.5093 45.8267C39.2896 46.1147 39.1187 46.459 38.9966 46.8594C38.8794 47.2549 38.8208 47.6943 38.8208 48.1777V48.4927C38.8208 48.9321 38.8843 49.3423 39.0112 49.7231C39.1431 50.0991 39.3286 50.4312 39.5679 50.7192C39.812 51.0073 40.1001 51.2319 40.4321 51.3931C40.7642 51.5542 41.1304 51.6348 41.5308 51.6348C41.9995 51.6348 42.4146 51.5493 42.7759 51.3784C43.1372 51.2026 43.4619 50.9268 43.75 50.5508L44.2993 50.9756C44.1284 51.2295 43.9136 51.4639 43.6548 51.6787C43.4009 51.8936 43.0957 52.0645 42.7393 52.1914C42.3828 52.3184 41.9678 52.3818 41.4941 52.3818Z" fill="#444473"/>
</svg>
