<svg width="30" height="30" viewBox="0 0 30 30" fill="none" xmlns="http://www.w3.org/2000/svg">
<path d="M0.277448 13.7579C0.100354 13.9275 0 14.1634 0 14.4103V29.1024C0 29.5982 0.396598 30 0.885826 30H8.6811C9.49648 30 10.1575 29.3303 10.1575 28.5041V18.7507C10.1575 17.9245 10.8185 17.2547 11.6339 17.2547H18.3661C19.1815 17.2547 19.8425 17.9245 19.8425 18.7507V28.5041C19.8425 29.3303 20.5035 30 21.3189 30H29.1142C29.6034 30 30 29.5982 30 29.1024V14.4103C30 14.1634 29.8996 13.9275 29.7226 13.7579L15.6084 0.245163C15.2669 -0.0817206 14.7331 -0.0817212 14.3916 0.245162L0.277448 13.7579Z" fill="#444473"/>
</svg>
