<svg width="50" height="52" viewBox="0 0 50 52" fill="none" xmlns="http://www.w3.org/2000/svg">
<path d="M9.09912 47.0327H6.05957V46.2637H9.09912C9.73389 46.2637 10.249 46.1611 10.6445 45.9561C11.0449 45.7461 11.3354 45.4629 11.5161 45.1064C11.7017 44.75 11.7944 44.3496 11.7944 43.9053C11.7944 43.4707 11.7017 43.0703 11.5161 42.7041C11.3354 42.3379 11.0449 42.0449 10.6445 41.8252C10.249 41.6006 9.73389 41.4883 9.09912 41.4883H6.37451V51.376H5.47363V40.7119H9.09912C9.88037 40.7119 10.5371 40.8462 11.0693 41.1147C11.6064 41.3833 12.0117 41.7568 12.2852 42.2354C12.5586 42.7139 12.6953 43.2656 12.6953 43.8906C12.6953 44.5449 12.5586 45.1089 12.2852 45.5825C12.0117 46.0513 11.6089 46.4102 11.0767 46.6592C10.5444 46.9082 9.88525 47.0327 9.09912 47.0327ZM15.3833 44.7622V51.376H14.5117V43.4512H15.3613L15.3833 44.7622ZM18.1885 43.3926L18.1665 44.1982C18.0688 44.1836 17.9736 44.1714 17.8809 44.1616C17.7881 44.1519 17.688 44.147 17.5806 44.147C17.1997 44.147 16.8652 44.2178 16.5771 44.3594C16.2939 44.4961 16.0547 44.689 15.8594 44.938C15.6641 45.1821 15.5151 45.4702 15.4126 45.8022C15.3101 46.1294 15.2515 46.481 15.2368 46.8569L14.9146 46.9814C14.9146 46.4639 14.9683 45.9829 15.0757 45.5386C15.1831 45.0942 15.3467 44.7061 15.5664 44.374C15.791 44.0371 16.0718 43.7759 16.4087 43.5903C16.7505 43.3999 17.1509 43.3047 17.6099 43.3047C17.7222 43.3047 17.832 43.3145 17.9395 43.334C18.0518 43.3486 18.1348 43.3682 18.1885 43.3926ZM18.9355 47.5381V47.2964C18.9355 46.7202 19.0186 46.188 19.1846 45.6997C19.3506 45.2114 19.5874 44.7891 19.895 44.4326C20.2075 44.0762 20.5811 43.8003 21.0156 43.605C21.4502 43.4048 21.9336 43.3047 22.4658 43.3047C23.0029 43.3047 23.4888 43.4048 23.9233 43.605C24.3579 43.8003 24.7314 44.0762 25.0439 44.4326C25.3564 44.7891 25.5957 45.2114 25.7617 45.6997C25.9277 46.188 26.0107 46.7202 26.0107 47.2964V47.5381C26.0107 48.1143 25.9277 48.6465 25.7617 49.1348C25.5957 49.6182 25.3564 50.0381 25.0439 50.3945C24.7363 50.751 24.3652 51.0293 23.9307 51.2295C23.4961 51.4248 23.0127 51.5225 22.4805 51.5225C21.9434 51.5225 21.4575 51.4248 21.0229 51.2295C20.5884 51.0293 20.2148 50.751 19.9023 50.3945C19.5898 50.0381 19.3506 49.6182 19.1846 49.1348C19.0186 48.6465 18.9355 48.1143 18.9355 47.5381ZM19.8071 47.2964V47.5381C19.8071 47.9727 19.8657 48.3853 19.9829 48.7759C20.1001 49.1616 20.271 49.5059 20.4956 49.8086C20.7202 50.1064 20.9985 50.3408 21.3306 50.5117C21.6626 50.6826 22.0459 50.7681 22.4805 50.7681C22.9102 50.7681 23.2886 50.6826 23.6157 50.5117C23.9478 50.3408 24.2261 50.1064 24.4507 49.8086C24.6753 49.5059 24.8438 49.1616 24.9561 48.7759C25.0732 48.3853 25.1318 47.9727 25.1318 47.5381V47.2964C25.1318 46.8667 25.0732 46.459 24.9561 46.0732C24.8438 45.6875 24.6729 45.3433 24.4434 45.0405C24.2188 44.7378 23.9404 44.4985 23.6084 44.3228C23.2764 44.147 22.8955 44.0591 22.4658 44.0591C22.0361 44.0591 21.6553 44.147 21.3232 44.3228C20.9961 44.4985 20.7178 44.7378 20.4883 45.0405C20.2637 45.3433 20.0928 45.6875 19.9756 46.0732C19.8633 46.459 19.8071 46.8667 19.8071 47.2964ZM29.2261 51.376H28.3545V42.6162C28.3545 42.0449 28.4595 41.564 28.6694 41.1733C28.8843 40.7778 29.187 40.48 29.5776 40.2798C29.9731 40.0747 30.4419 39.9722 30.9839 39.9722C31.311 39.9722 31.6431 40.0088 31.98 40.082C32.3169 40.1553 32.6562 40.2627 32.998 40.4043L32.8589 41.166C32.6001 41.0537 32.3291 40.9609 32.0459 40.8877C31.7627 40.8145 31.4258 40.7778 31.0352 40.7778C30.4395 40.7778 29.9878 40.9341 29.6802 41.2466C29.3774 41.5591 29.2261 42.0156 29.2261 42.6162V51.376ZM31.0791 43.4512V44.1689H27.0361V43.4512H31.0791ZM33.4741 43.4512V51.376H32.6025V43.4512H33.4741ZM36.8726 40.126V51.376H36.001V40.126H36.8726ZM42.3291 51.5225C41.8115 51.5225 41.3354 51.4272 40.9009 51.2368C40.4712 51.0464 40.0952 50.7778 39.7729 50.4312C39.4556 50.0845 39.209 49.6743 39.0332 49.2007C38.8623 48.7222 38.7769 48.1997 38.7769 47.6333V47.3184C38.7769 46.708 38.8672 46.1562 39.0479 45.6631C39.2285 45.1699 39.4775 44.7476 39.7949 44.396C40.1123 44.0444 40.4736 43.7759 40.8789 43.5903C41.2891 43.3999 41.7188 43.3047 42.168 43.3047C42.6709 43.3047 43.1177 43.395 43.5083 43.5757C43.8989 43.7515 44.2261 44.0029 44.4897 44.3301C44.7583 44.6523 44.9609 45.0356 45.0977 45.48C45.2344 45.9194 45.3027 46.4053 45.3027 46.9375V47.4722H39.3042V46.7251H44.4312V46.6226C44.4214 46.1782 44.3311 45.7632 44.1602 45.3774C43.9941 44.9868 43.7451 44.6694 43.4131 44.4253C43.0811 44.1812 42.666 44.0591 42.168 44.0591C41.7969 44.0591 41.4551 44.1372 41.1426 44.2935C40.835 44.4497 40.5688 44.6743 40.3442 44.9673C40.1245 45.2554 39.9536 45.5996 39.8315 46C39.7144 46.3955 39.6558 46.835 39.6558 47.3184V47.6333C39.6558 48.0728 39.7192 48.4829 39.8462 48.8638C39.978 49.2397 40.1636 49.5718 40.4028 49.8599C40.647 50.1479 40.9351 50.3726 41.2671 50.5337C41.5991 50.6948 41.9653 50.7754 42.3657 50.7754C42.8345 50.7754 43.2495 50.6899 43.6108 50.519C43.9722 50.3433 44.2969 50.0674 44.585 49.6914L45.1343 50.1162C44.9634 50.3701 44.7485 50.6045 44.4897 50.8193C44.2358 51.0342 43.9307 51.2051 43.5742 51.332C43.2178 51.459 42.8027 51.5225 42.3291 51.5225Z" fill="#565050"/>
<circle cx="25" cy="8.61539" r="8.61539" fill="#565050"/>
<rect x="11" y="18.3076" width="28" height="18.3077" rx="7.5" fill="#565050"/>
</svg>
