<svg width="30" height="30" viewBox="0 0 30 30" fill="none" xmlns="http://www.w3.org/2000/svg">
<path fill-rule="evenodd" clip-rule="evenodd" d="M1.49701 0H4.07297C4.42414 0.436323 4.96374 0.715706 5.56886 0.715706C6.17398 0.715706 6.71359 0.436323 7.06476 0H28.503C29.3298 0 30 0.667567 30 1.49105V28.5089C30 29.3324 29.3298 30 28.503 30H7.19257C6.85358 29.4626 6.25311 29.1054 5.56886 29.1054C4.88462 29.1054 4.28414 29.4626 3.94516 30H1.49701C0.670232 30 0 29.3324 0 28.5089V1.49105C0 0.667567 0.670232 0 1.49701 0ZM5.56886 6.0835C6.62713 6.0835 7.48503 5.22901 7.48503 4.17495C7.48503 3.12089 6.62713 2.2664 5.56886 2.2664C4.51059 2.2664 3.65269 3.12089 3.65269 4.17495C3.65269 5.22901 4.51059 6.0835 5.56886 6.0835ZM7.48503 9.54274C7.48503 10.5968 6.62713 11.4513 5.56886 11.4513C4.51059 11.4513 3.65269 10.5968 3.65269 9.54274C3.65269 8.48868 4.51059 7.6342 5.56886 7.6342C6.62713 7.6342 7.48503 8.48868 7.48503 9.54274ZM5.56886 16.8191C6.62713 16.8191 7.48503 15.9646 7.48503 14.9105C7.48503 13.8565 6.62713 13.002 5.56886 13.002C4.51059 13.002 3.65269 13.8565 3.65269 14.9105C3.65269 15.9646 4.51059 16.8191 5.56886 16.8191ZM7.48503 20.2783C7.48503 21.3324 6.62713 22.1869 5.56886 22.1869C4.51059 22.1869 3.65269 21.3324 3.65269 20.2783C3.65269 19.2243 4.51059 18.3698 5.56886 18.3698C6.62713 18.3698 7.48503 19.2243 7.48503 20.2783ZM5.56886 27.5547C6.62713 27.5547 7.48503 26.7002 7.48503 25.6461C7.48503 24.5921 6.62713 23.7376 5.56886 23.7376C4.51059 23.7376 3.65269 24.5921 3.65269 25.6461C3.65269 26.7002 4.51059 27.5547 5.56886 27.5547ZM10.9581 2.74354C10.462 2.74354 10.0599 3.14408 10.0599 3.63817V4.77137C10.0599 5.26546 10.462 5.666 10.9581 5.666H25.7485C26.2446 5.666 26.6467 5.26546 26.6467 4.77137V3.63817C26.6467 3.14408 26.2446 2.74354 25.7485 2.74354H10.9581ZM10.0599 9.00596C10.0599 8.51188 10.462 8.11133 10.9581 8.11133H25.7485C26.2446 8.11133 26.6467 8.51188 26.6467 9.00596V10.1392C26.6467 10.6333 26.2446 11.0338 25.7485 11.0338H10.9581C10.462 11.0338 10.0599 10.6333 10.0599 10.1392V9.00596ZM10.9581 13.4791C10.462 13.4791 10.0599 13.8797 10.0599 14.3738V15.507C10.0599 16.001 10.462 16.4016 10.9581 16.4016H25.7485C26.2446 16.4016 26.6467 16.001 26.6467 15.507V14.3738C26.6467 13.8797 26.2446 13.4791 25.7485 13.4791H10.9581ZM10.0599 19.7416C10.0599 19.2475 10.462 18.8469 10.9581 18.8469H25.7485C26.2446 18.8469 26.6467 19.2475 26.6467 19.7416V20.8748C26.6467 21.3688 26.2446 21.7694 25.7485 21.7694H10.9581C10.462 21.7694 10.0599 21.3688 10.0599 20.8748V19.7416ZM10.9581 24.2147C10.462 24.2147 10.0599 24.6153 10.0599 25.1093V26.2425C10.0599 26.7366 10.462 27.1372 10.9581 27.1372H25.7485C26.2446 27.1372 26.6467 26.7366 26.6467 26.2425V25.1093C26.6467 24.6153 26.2446 24.2147 25.7485 24.2147H10.9581Z" fill="#444473"/>
</svg>
