<svg width="172" height="90" viewBox="0 0 172 90" fill="none" xmlns="http://www.w3.org/2000/svg">
<rect x="53.7671" width="9.88935" height="70.7116" rx="1" transform="rotate(49.497 53.7671 0)" fill="white"/>
<path d="M14 53.2045C14 52.0999 14.8954 51.2045 16 51.2045H22C23.1046 51.2045 24 52.0999 24 53.2045V87.2045C24 88.3091 23.1046 89.2045 22 89.2045H16C14.8954 89.2045 14 88.3091 14 87.2045V53.2045Z" fill="white"/>
<path d="M53.3205 18.2905C53.7071 17.9571 54.2828 17.9684 54.656 18.3167L60.6797 23.9389C61.1167 24.3467 61.1006 25.0443 60.6453 25.4316L21.1795 59.0069C20.7609 59.363 20.1333 59.3146 19.7743 58.8984L14.6532 52.9618C14.2925 52.5435 14.3391 51.9121 14.7573 51.5513L53.3205 18.2905Z" fill="white"/>
<path d="M69.9757 14.848C70.42 15.2561 70.4046 15.9616 69.9429 16.3499L63.8752 21.4532C63.4908 21.7765 62.9263 21.7645 62.556 21.4253L47.8946 7.99355C47.4873 7.62047 47.4596 6.98791 47.8327 6.58069L53.1612 0.764375C53.5346 0.356784 54.1678 0.329462 54.575 0.703379L69.9757 14.848Z" fill="white"/>
<rect x="14" y="13.2045" width="14" height="22" rx="1" fill="white"/>
<path d="M63.9043 89.2045H54.6172L54.6758 82.349H63.9043C66.209 82.349 68.1523 81.8315 69.7344 80.7963C71.3164 79.7416 72.5078 78.2084 73.3086 76.1967C74.1289 74.185 74.5391 71.7533 74.5391 68.9018V66.8217C74.5391 64.6342 74.3047 62.7104 73.8359 61.0502C73.3867 59.39 72.7129 57.9936 71.8145 56.8607C70.916 55.7279 69.8125 54.8783 68.5039 54.3119C67.1953 53.726 65.6914 53.433 63.9922 53.433H54.4414V46.5482H63.9922C66.8438 46.5482 69.4512 47.0365 71.8145 48.0131C74.1973 48.9701 76.2578 50.3471 77.9961 52.144C79.7344 53.9408 81.0723 56.0893 82.0098 58.5893C82.9668 61.0697 83.4453 63.8334 83.4453 66.8803V68.9018C83.4453 71.9291 82.9668 74.6928 82.0098 77.1928C81.0723 79.6928 79.7344 81.8412 77.9961 83.6381C76.2773 85.4154 74.2168 86.7924 71.8145 87.769C69.4316 88.726 66.7949 89.2045 63.9043 89.2045ZM59.5977 46.5482V89.2045H50.8086V46.5482H59.5977ZM103.895 89.7904C101.434 89.7904 99.2266 89.3998 97.2734 88.6186C95.3203 87.8178 93.6602 86.7143 92.293 85.308C90.9453 83.9018 89.9102 82.2709 89.1875 80.4154C88.4648 78.5404 88.1035 76.5482 88.1035 74.4389V73.267C88.1035 70.8647 88.4453 68.6674 89.1289 66.6752C89.8125 64.683 90.7891 62.9545 92.0586 61.4897C93.3477 60.0248 94.9102 58.9018 96.7461 58.1205C98.582 57.3197 100.652 56.9193 102.957 56.9193C105.203 56.9193 107.195 57.2904 108.934 58.0326C110.672 58.7748 112.127 59.8295 113.299 61.1967C114.49 62.5639 115.389 64.2045 115.994 66.1186C116.6 68.0131 116.902 70.1225 116.902 72.4467V75.9623H91.707V70.3373H108.611V69.6928C108.611 68.5209 108.396 67.476 107.967 66.558C107.557 65.6205 106.932 64.8783 106.092 64.3315C105.252 63.7846 104.178 63.5111 102.869 63.5111C101.756 63.5111 100.799 63.7553 99.998 64.2436C99.1973 64.7318 98.543 65.4154 98.0352 66.2943C97.5469 67.1732 97.1758 68.2084 96.9219 69.3998C96.6875 70.5717 96.5703 71.8607 96.5703 73.267V74.4389C96.5703 75.7084 96.7461 76.8803 97.0977 77.9545C97.4688 79.0287 97.9863 79.9565 98.6504 80.7377C99.334 81.519 100.154 82.1244 101.111 82.5541C102.088 82.9838 103.191 83.1986 104.422 83.1986C105.945 83.1986 107.361 82.9057 108.67 82.3197C109.998 81.7143 111.141 80.8061 112.098 79.5951L116.199 84.0482C115.535 85.0053 114.627 85.9232 113.475 86.8022C112.342 87.6811 110.975 88.4037 109.373 88.9701C107.771 89.517 105.945 89.7904 103.895 89.7904ZM130.145 64.4193V89.2045H121.707V57.5053H129.646L130.145 64.4193ZM139.695 57.3002L139.549 65.1225C139.139 65.0639 138.641 65.015 138.055 64.976C137.488 64.9174 136.971 64.8881 136.502 64.8881C135.311 64.8881 134.275 65.0443 133.396 65.3568C132.537 65.6498 131.814 66.0893 131.229 66.6752C130.662 67.2611 130.232 67.974 129.939 68.8139C129.666 69.6537 129.51 70.6107 129.471 71.685L127.771 71.1576C127.771 69.1068 127.977 67.2221 128.387 65.5033C128.797 63.765 129.393 62.2514 130.174 60.9623C130.975 59.6732 131.951 58.6772 133.104 57.974C134.256 57.2709 135.574 56.9193 137.059 56.9193C137.527 56.9193 138.006 56.9584 138.494 57.0365C138.982 57.0951 139.383 57.183 139.695 57.3002ZM159.793 82.0561V67.935C159.793 66.9193 159.627 66.0502 159.295 65.3275C158.963 64.5854 158.445 64.0092 157.742 63.599C157.059 63.1889 156.17 62.9838 155.076 62.9838C154.139 62.9838 153.328 63.1498 152.645 63.4818C151.961 63.7943 151.434 64.2533 151.062 64.8588C150.691 65.4447 150.506 66.1381 150.506 66.9389H142.068C142.068 65.5912 142.381 64.3119 143.006 63.101C143.631 61.89 144.539 60.8256 145.73 59.9076C146.922 58.9701 148.338 58.2377 149.979 57.7104C151.639 57.183 153.494 56.9193 155.545 56.9193C158.006 56.9193 160.193 57.3295 162.107 58.1498C164.021 58.9701 165.525 60.2006 166.619 61.8412C167.732 63.4818 168.289 65.5326 168.289 67.9936V81.558C168.289 83.2963 168.396 84.7221 168.611 85.8354C168.826 86.9291 169.139 87.8861 169.549 88.7065V89.2045H161.023C160.613 88.3451 160.301 87.2709 160.086 85.9818C159.891 84.6732 159.793 83.3647 159.793 82.0561ZM160.906 69.8979L160.965 74.6732H156.248C155.135 74.6732 154.168 74.8002 153.348 75.0541C152.527 75.308 151.854 75.6693 151.326 76.1381C150.799 76.5873 150.408 77.1147 150.154 77.7201C149.92 78.3256 149.803 78.9897 149.803 79.7123C149.803 80.435 149.969 81.0893 150.301 81.6752C150.633 82.2416 151.111 82.6908 151.736 83.0229C152.361 83.3354 153.094 83.4916 153.934 83.4916C155.203 83.4916 156.307 83.2377 157.244 82.7299C158.182 82.2221 158.904 81.5971 159.412 80.8549C159.939 80.1127 160.213 79.4096 160.232 78.7455L162.459 82.3197C162.146 83.1205 161.717 83.9506 161.17 84.81C160.643 85.6693 159.969 86.4799 159.148 87.2416C158.328 87.9838 157.342 88.599 156.189 89.0873C155.037 89.5561 153.67 89.7904 152.088 89.7904C150.076 89.7904 148.25 89.39 146.609 88.5893C144.988 87.769 143.699 86.6459 142.742 85.2201C141.805 83.7748 141.336 82.1342 141.336 80.2982C141.336 78.6381 141.648 77.1635 142.273 75.8744C142.898 74.5854 143.816 73.5014 145.027 72.6225C146.258 71.724 147.791 71.0502 149.627 70.601C151.463 70.1322 153.592 69.8979 156.014 69.8979H160.906Z" fill="white"/>
</svg>
